<svg width="84" height="101" viewBox="0 0 84 101" fill="none" xmlns="http://www.w3.org/2000/svg">
<g id="Group 36">
<g id="Group 33">
<line id="Line 5" x1="1" y1="-1" x2="3.75373" y2="-1" transform="matrix(0.248678 0.968586 -0.716453 0.697636 1.76358 1)" stroke="#140005" stroke-width="2" stroke-linecap="round"/>
<line id="Line 11" x1="1" y1="-1" x2="3.75373" y2="-1" transform="matrix(0.248678 0.968586 -0.716453 0.697636 1.76358 20.0791)" stroke="#140005" stroke-width="2" stroke-linecap="round"/>
<line id="Line 17" x1="1" y1="-1" x2="3.75373" y2="-1" transform="matrix(0.248678 0.968586 -0.716453 0.697636 1.76358 39.1583)" stroke="#140005" stroke-width="2" stroke-linecap="round"/>
<line id="Line 23" x1="1" y1="-1" x2="3.75373" y2="-1" transform="matrix(0.248678 0.968586 -0.716453 0.697636 1.76358 58.2374)" stroke="#140005" stroke-width="2" stroke-linecap="round"/>
<line id="Line 29" x1="1" y1="-1" x2="3.75373" y2="-1" transform="matrix(0.248678 0.968586 -0.716453 0.697636 1.76358 77.3165)" stroke="#140005" stroke-width="2" stroke-linecap="round"/>
<line id="Line 35" x1="1" y1="-1" x2="3.75373" y2="-1" transform="matrix(0.248678 0.968586 -0.716453 0.697636 1.76358 96.3956)" stroke="#140005" stroke-width="2" stroke-linecap="round"/>
<line id="Line 6" x1="1" y1="-1" x2="3.75373" y2="-1" transform="matrix(0.248678 0.968586 -0.716453 0.697636 21.5271 1)" stroke="#140005" stroke-width="2" stroke-linecap="round"/>
<line id="Line 12" x1="1" y1="-1" x2="3.75373" y2="-1" transform="matrix(0.248678 0.968586 -0.716453 0.697636 21.5271 20.0791)" stroke="#140005" stroke-width="2" stroke-linecap="round"/>
<line id="Line 18" x1="1" y1="-1" x2="3.75373" y2="-1" transform="matrix(0.248678 0.968586 -0.716453 0.697636 21.5271 39.1583)" stroke="#140005" stroke-width="2" stroke-linecap="round"/>
<line id="Line 24" x1="1" y1="-1" x2="3.75373" y2="-1" transform="matrix(0.248678 0.968586 -0.716453 0.697636 21.5271 58.2374)" stroke="#140005" stroke-width="2" stroke-linecap="round"/>
<line id="Line 30" x1="1" y1="-1" x2="3.75373" y2="-1" transform="matrix(0.248678 0.968586 -0.716453 0.697636 21.5271 77.3165)" stroke="#140005" stroke-width="2" stroke-linecap="round"/>
<line id="Line 36" x1="1" y1="-1" x2="3.75373" y2="-1" transform="matrix(0.248678 0.968586 -0.716453 0.697636 21.5271 96.3956)" stroke="#140005" stroke-width="2" stroke-linecap="round"/>
<line id="Line 7" x1="1" y1="-1" x2="3.75373" y2="-1" transform="matrix(0.248678 0.968586 -0.716453 0.697636 41.2907 1)" stroke="#140005" stroke-width="2" stroke-linecap="round"/>
<line id="Line 13" x1="1" y1="-1" x2="3.75373" y2="-1" transform="matrix(0.248678 0.968586 -0.716453 0.697636 41.2907 20.0791)" stroke="#140005" stroke-width="2" stroke-linecap="round"/>
<line id="Line 19" x1="1" y1="-1" x2="3.75373" y2="-1" transform="matrix(0.248678 0.968586 -0.716453 0.697636 41.2907 39.1583)" stroke="#140005" stroke-width="2" stroke-linecap="round"/>
<line id="Line 25" x1="1" y1="-1" x2="3.75373" y2="-1" transform="matrix(0.248678 0.968586 -0.716453 0.697636 41.2907 58.2374)" stroke="#140005" stroke-width="2" stroke-linecap="round"/>
<line id="Line 31" x1="1" y1="-1" x2="3.75373" y2="-1" transform="matrix(0.248678 0.968586 -0.716453 0.697636 41.2907 77.3165)" stroke="#140005" stroke-width="2" stroke-linecap="round"/>
<line id="Line 37" x1="1" y1="-1" x2="3.75373" y2="-1" transform="matrix(0.248678 0.968586 -0.716453 0.697636 41.2907 96.3956)" stroke="#140005" stroke-width="2" stroke-linecap="round"/>
<line id="Line 8" x1="1" y1="-1" x2="3.75373" y2="-1" transform="matrix(0.248678 0.968586 -0.716453 0.697636 61.0543 1)" stroke="#140005" stroke-width="2" stroke-linecap="round"/>
<line id="Line 14" x1="1" y1="-1" x2="3.75373" y2="-1" transform="matrix(0.248678 0.968586 -0.716453 0.697636 61.0543 20.0791)" stroke="#140005" stroke-width="2" stroke-linecap="round"/>
<line id="Line 20" x1="1" y1="-1" x2="3.75373" y2="-1" transform="matrix(0.248678 0.968586 -0.716453 0.697636 61.0543 39.1583)" stroke="#140005" stroke-width="2" stroke-linecap="round"/>
<line id="Line 26" x1="1" y1="-1" x2="3.75373" y2="-1" transform="matrix(0.248678 0.968586 -0.716453 0.697636 61.0543 58.2374)" stroke="#140005" stroke-width="2" stroke-linecap="round"/>
<line id="Line 32" x1="1" y1="-1" x2="3.75373" y2="-1" transform="matrix(0.248678 0.968586 -0.716453 0.697636 61.0543 77.3165)" stroke="#140005" stroke-width="2" stroke-linecap="round"/>
<line id="Line 38" x1="1" y1="-1" x2="3.75373" y2="-1" transform="matrix(0.248678 0.968586 -0.716453 0.697636 61.0543 96.3956)" stroke="#140005" stroke-width="2" stroke-linecap="round"/>
<line id="Line 9" x1="1" y1="-1" x2="3.75373" y2="-1" transform="matrix(0.248678 0.968586 -0.716453 0.697636 80.8179 1)" stroke="#140005" stroke-width="2" stroke-linecap="round"/>
<line id="Line 15" x1="1" y1="-1" x2="3.75373" y2="-1" transform="matrix(0.248678 0.968586 -0.716453 0.697636 80.8179 20.0791)" stroke="#140005" stroke-width="2" stroke-linecap="round"/>
<line id="Line 21" x1="1" y1="-1" x2="3.75373" y2="-1" transform="matrix(0.248678 0.968586 -0.716453 0.697636 80.8179 39.1583)" stroke="#140005" stroke-width="2" stroke-linecap="round"/>
<line id="Line 27" x1="1" y1="-1" x2="3.75373" y2="-1" transform="matrix(0.248678 0.968586 -0.716453 0.697636 80.8179 58.2374)" stroke="#140005" stroke-width="2" stroke-linecap="round"/>
<line id="Line 33" x1="1" y1="-1" x2="3.75373" y2="-1" transform="matrix(0.248678 0.968586 -0.716453 0.697636 80.8179 77.3165)" stroke="#140005" stroke-width="2" stroke-linecap="round"/>
<line id="Line 39" x1="1" y1="-1" x2="3.75373" y2="-1" transform="matrix(0.248678 0.968586 -0.716453 0.697636 80.8179 96.3956)" stroke="#140005" stroke-width="2" stroke-linecap="round"/>
</g>
</g>
</svg>
