<svg width="333" height="136" viewBox="0 0 333 136" fill="none" xmlns="http://www.w3.org/2000/svg">
<g clip-path="url(#clip0_8_50)">
<g clip-path="url(#clip1_8_50)">
<path d="M271.954 30.468C271.963 31.3074 270.923 31.1 270.523 31.2391C268.694 31.8737 267.051 32.931 265.24 33.5335C261.779 34.684 258.562 36.4133 255.093 37.5604C252.518 38.4123 250.089 39.7295 247.483 40.5538C246.613 40.8287 245.919 41.4404 244.899 41.5008C244.01 41.5533 243.51 42.394 243.662 43.4033C243.345 43.3489 243.147 43.4932 243.078 43.7925C243.067 43.843 243.221 43.9966 243.271 43.9855C243.571 43.9179 243.716 43.719 243.661 43.4033C246.874 43.4545 249.998 42.2424 253.24 42.7464C254.521 41.6281 256.352 42.6 257.687 41.5756C257.971 41.3577 258.511 41.447 258.933 41.4411C260.027 41.4253 261.359 41.8269 262.159 41.342C263.296 40.6522 264.07 41.4817 264.948 41.5349C266.614 41.636 267.948 40.6017 269.611 40.7047C271.134 40.7992 272.84 41.3662 274.278 40.1462C274.468 39.9848 274.916 40.1318 275.244 40.1226C276.819 40.0786 278.393 40.3142 279.923 39.5201C280.579 39.1802 281.533 39.3934 282.2 40.0018C282.721 39.1565 283.587 39.3994 284.272 39.5017C285.814 39.7321 287.032 38.5114 288.609 38.766C289.995 38.9898 291.45 38.8684 292.867 38.7811C293.329 38.7522 293.768 38.3506 294.142 38.1583C294.904 38.1189 295.134 39.2176 295.935 38.812C298.167 37.6805 300.562 38.2719 302.887 38.1826C303.584 38.1557 304.109 37.9542 304.619 37.2769C305.683 38.4136 306.998 38.0815 308.251 38.1741C309.242 38.2469 309.826 37.1883 310.947 37.4456C311.808 37.6425 312.858 37.8118 313.666 36.8904C313.834 36.7001 314.622 36.7571 315.173 37.0617C316.663 37.884 318.194 37.8387 319.724 36.8267C320.441 36.6725 320.779 37.8446 321.669 37.5152C322.388 37.2487 322.959 37.8584 323.612 38.0336L323.893 36.937C326.529 38.176 329.128 39.4079 331.661 41.1936V43.0798L332.802 44.2191C333.506 45.8021 332.091 46.9355 332.292 48.2408L330.027 50.6146C327.803 50.7183 326.012 49.6741 324.085 48.8098L322.574 49.5232C322.198 50.0187 322.801 50.8075 322.157 51.2623C321.572 51.0241 322.075 50.1998 321.374 49.9944L320.952 51.1823L320.053 50.7235C319.26 51.9882 320.739 51.9678 320.814 52.5329C321.637 52.6701 321.8 52.1601 322.141 51.9317C322.772 52.674 323.778 52.7396 324.523 53.2653C325.225 52.4647 326.214 53.3283 326.932 52.7816C327.629 53.7483 328.821 52.823 329.594 53.4674C330.115 54.509 328.208 55.0209 329.496 56.384C327.767 56.317 326.711 56.9005 325.978 57.9807C323.612 57.1912 321.385 56.5054 319.163 57.8252C317.956 56.8237 316.286 56.7869 315.229 57.3034C314.204 57.8042 313.328 57.0842 312.595 57.5633C311.532 58.2577 310.86 57.4065 310.006 57.1984C309.387 57.0475 308.557 56.9261 308.069 57.2129C306.346 58.2248 304.507 57.6276 302.736 57.8363C301.504 57.9814 300.128 57.3205 299.051 58.4657C298.949 58.5747 298.565 58.5701 298.42 58.4664C296.726 57.247 295.059 58.3377 293.371 58.4513C291.519 58.576 289.57 58.1343 287.811 58.5569C284.827 59.2742 281.781 58.6816 278.895 59.2526C276.542 59.7185 274.18 59.3786 271.94 59.8728C269.386 60.4359 266.783 60.0323 264.339 60.5612C262.204 61.0233 259.966 60.5455 258.065 61.226C255.998 61.9663 253.967 61.2589 252.074 61.8206C249.856 62.4782 247.598 62.0772 245.452 62.5078C243.665 62.8661 241.727 62.7611 240.146 63.796L239.195 62.9173C237.95 64.4707 235.979 63.1444 234.52 64.0566C233.99 64.388 233.518 64.3841 233.005 64.371C229.743 64.286 226.487 64.7177 223.36 65.6501C222.454 65.9178 221.397 65.7537 220.418 65.6783C218.17 65.5044 216.054 66.0241 213.987 66.8077C212.719 67.2881 211.191 66.5314 210.071 67.6576C207.582 67.1779 205.228 68.1774 202.798 68.3776C200.245 68.5882 197.727 69.2747 195.217 69.8555C194.871 69.9356 194.555 70.2611 194.089 70.3011C192.96 70.3983 191.855 70.0353 190.687 70.8472C189.871 71.4142 188.363 70.5663 187.409 71.5907C184.564 70.9292 182.198 73.1921 179.418 72.8928C178.709 72.8167 178.42 73.5307 177.736 73.6502C177.22 73.7401 176.723 74.2598 176.021 74.2244C172.418 74.042 169.107 75.4392 165.745 76.3704C162.84 77.1757 159.809 77.748 157.151 79.3998C156.528 79.7871 155.459 79.4569 155.271 79.4569C151.495 80.9933 148.243 81.8714 144.724 82.193C143.703 83.4157 142.007 83.2476 140.563 83.6946C136.484 84.9584 132.4 86.204 128.311 87.4315C126.648 87.9296 124.982 88.8805 123.35 89.6963C121.913 90.4143 120.463 91.4348 118.755 91.2117C117.852 91.0935 117.296 91.6743 116.758 91.9756C111.515 94.9078 105.616 96.2827 100.296 99.0057C98.5063 98.5725 97.4457 100.054 96.0544 100.65C94.7549 101.206 93.4384 101.734 92.1528 102.332C89.3183 103.65 86.3105 104.597 83.3638 105.668C82.9858 105.806 82.5553 105.59 82.1589 105.945C79.9649 107.902 77.0221 108.359 74.4436 109.497C71.9629 110.592 69.3509 111.443 66.8904 112.653C66.0018 113.09 64.978 113.252 64.0448 113.531L63.5191 113.007C63.3767 113.075 63.0965 113.145 63.0951 113.221C63.0741 114.269 62.4467 114.735 61.5122 114.851C59.7369 115.072 58.3561 116.214 56.7522 116.835C55.244 117.418 53.728 117.938 52.2566 118.673C49.5547 120.023 46.6526 120.979 43.8142 122.047C43.4414 122.188 43.0194 122.095 42.6558 122.438C41.0854 123.918 39.1185 124.423 37.0354 124.716C35.732 124.9 34.8979 126.553 33.3084 126.003C32.0168 127.765 29.8603 127.714 28.0883 128.456C26.4102 129.158 24.673 129.721 22.9549 130.324C21.1409 130.961 19.325 131.544 17.5451 132.326C15.1464 133.38 12.4825 133.841 9.91975 134.508C9.4236 134.637 8.95763 134.645 8.43917 134.914C6.55826 135.892 6.52085 135.82 4.18579 135.784L2.77216 132.141C3.28997 131.79 4.09654 131.718 4.58153 130.924C2.56937 130.293 2.31932 127.674 0.276312 127.322C-0.353065 126.029 0.169994 125.172 1.06845 124.721C3.71983 123.391 6.25046 121.877 8.78044 120.335C9.76224 119.737 11.0564 119.585 12.115 118.897C14.5019 117.346 17.2662 116.501 19.6629 114.913C20.625 114.276 21.7092 113.656 23.0146 113.487C24.228 113.33 25.1022 112.199 26.1713 111.629C28.1264 110.587 30.3571 110.038 32.2544 108.916C35.9434 106.733 40.1088 105.64 43.8398 103.586C45.0959 102.894 46.4321 102.41 47.8142 102.356L48.0886 101.305C48.2782 101.234 48.4626 101.139 48.6582 101.097C49.2725 100.967 49.8881 101.234 50.5365 100.865C52.4719 99.7637 54.4611 98.753 56.592 98.0606C57.3697 97.808 58.0109 97.4129 58.173 96.5433L59.0131 97.2928C60.5573 96.3996 61.8521 94.7024 63.9273 95.2412C64.0783 95.1316 64.2095 95.0863 64.2377 95.0063C64.3368 94.7182 64.4012 94.4176 64.4779 94.1216C67.5854 93.4535 70.6457 92.6673 73.2131 90.6459C76.4367 90.581 78.7915 88.2479 81.7651 87.5292C83.8134 87.2995 85.9345 87.27 87.5128 85.5479C89.2986 85.5007 90.3447 83.5128 91.8712 83.5108C93.6156 83.5082 94.8481 82.575 96.2244 82.0152C101.296 79.9518 106.681 78.7705 111.644 76.4597C112.509 76.0574 113.34 76.459 114.174 76.0594L114.416 74.9004C116.271 75.4136 117.904 73.8989 119.82 74.2454L121.218 72.9269L121.755 73.4631C123.783 72.188 126.223 71.8099 128.288 70.5065C129.006 70.0531 130.155 70.2808 131.129 70.1961L132.313 69.0142H134.376L135.348 67.5316C138.327 68.2253 140.261 66.074 142.739 65.6684L143.603 66.368L145.24 64.2778C148.269 64.8185 150.603 63.4804 153.061 62.7151C154.648 62.2203 156.171 61.4387 157.877 61.8082L159.302 60.468L159.811 60.976C160.491 60.6255 161.301 60.5009 161.935 59.7468H164.634C164.985 59.1496 164.16 59.1286 164.324 58.6974C165.314 57.9722 166.709 59.1121 167.634 58.0089C168.672 58.614 169.543 58.3364 170.669 57.9512C171.574 57.6414 172.826 57.6631 173.589 57.1046C174.572 56.3853 175.9 56.8053 176.678 55.7251L177.722 56.4601C178.532 55.4199 180.407 56.1976 180.788 54.465L181.6 55.1744C182.611 54.2563 183.961 54.0719 185.184 53.5994C188.019 52.5047 190.895 51.5249 193.791 50.6041C194.076 50.5142 194.326 50.3015 194.574 50.1224C196.18 48.9614 198.124 48.6556 199.918 47.9632C201.711 47.2708 203.597 46.6795 205.251 45.8191C206.393 45.2258 207.798 45.9799 208.774 44.628C209.315 43.8791 210.776 43.805 211.812 43.3981C212.94 42.9544 214.259 42.7057 215.116 41.9457C215.87 41.277 216.716 41.3859 217.443 41.1687C219.501 40.5531 221.422 39.629 223.345 38.7588C225.41 37.8243 227.521 37.2192 229.688 36.6101C232.099 35.9322 234.286 34.489 236.681 33.7186C239.888 32.6869 242.998 31.5115 245.865 29.7329C249.33 29.5873 252.064 27.1675 255.445 26.6898C257.47 26.4036 259.023 24.8495 261.036 24.3435C262.898 23.8763 264.869 23.4891 266.269 21.8858C266.53 21.5872 267.325 21.8182 267.761 21.5904C268.224 21.3483 268.552 20.8501 268.954 20.4491L269.416 20.9578C269.987 21.1967 270.095 20.2687 270.697 20.4301C271.069 20.5299 271.574 20.6119 271.833 20.2011L272.038 19.2055H274.092C275.585 17.0955 278.337 17.4768 280.316 15.9943C282.081 14.6719 284.658 14.431 286.864 13.717C287.06 13.4151 287.057 13.1185 286.916 12.8645L286.673 12.5934C285.499 14.1541 283.503 12.4464 282.196 13.717C281.9 14.0038 281.177 13.8771 280.649 13.8955C279.181 13.946 277.77 13.9631 276.299 14.4816C274.434 15.1392 272.276 14.9219 270.39 15.3452C267.701 15.949 265.072 15.6885 262.392 15.8919L261.043 17.1553C260.864 16.9761 260.627 16.6598 260.566 16.6906C258.455 17.7499 255.95 17.32 253.869 18.4645C250.857 18.0544 248.041 19.1215 245.252 19.8775C242.25 20.6913 239.006 19.9084 236.129 21.6337C234.968 22.3301 233.166 21.3351 231.874 22.4239C228.801 22.3071 225.985 23.7805 222.898 23.8093C221.325 23.8238 219.735 24.5411 218.195 25.0635C216.124 25.7651 213.92 25.664 211.814 26.2697C210.65 26.6044 209.434 26.9103 208.301 27.3323C207.787 27.5239 207.319 27.6912 206.803 27.6611C204.458 27.5219 202.313 28.3226 200.117 28.9592C198.25 29.5006 196.32 29.8235 194.432 30.3C191.96 30.9234 189.499 31.5935 187.042 32.2728C186.757 32.3515 186.524 32.6173 186.078 32.9271C183.143 32.2898 180.377 33.8839 177.47 34.5671C176.594 34.7732 175.541 34.4352 174.776 35.146C173.682 36.1639 171.946 34.8415 170.943 36.1921C169.66 36.0726 168.586 36.8569 167.284 36.958C165.402 37.1037 163.518 37.8584 161.717 38.4989C160.794 38.8277 159.78 38.3683 159.01 39.0824C157.918 40.095 156.412 39.1224 155.092 40.0005C154.257 40.5564 152.763 40.6955 151.527 40.8976C149.041 41.3052 146.561 42.0744 144.167 42.8836C142.351 43.4972 140.365 43.6166 138.666 44.6673C138.23 44.9364 137.304 44.9817 137.099 44.0511C136.487 44.2919 136.722 44.815 136.382 45.3847C134.259 44.817 132.531 46.7825 130.389 46.6821C129.829 46.14 130.179 45.5599 130.053 45.023C130.791 44.4271 131.836 44.8144 132.64 44.1075C133.421 43.4211 134.06 44.8813 134.949 44.7179C136.308 42.352 138.742 42.3802 140.991 41.9969C141.378 41.6117 141.765 41.2258 142.152 40.8392C142.229 40.878 142.309 40.9534 142.383 40.9495C145.219 40.809 146.339 40.4514 149.121 38.8146H153.749L155.06 37.355C156.374 37.3262 157.391 36.9652 158.173 36.744C159.256 36.4375 160.579 36.5576 161.39 35.9289C162.352 35.1827 163.429 35.8889 164.393 35.1637C165.058 34.6629 166.124 33.33 167.178 34.7693C168.055 34.1176 169.219 33.9483 169.751 32.8306C171.765 33.1601 173.65 32.8398 175.38 31.7871L175.235 31.0947C174.207 30.8657 173.309 30.8854 172.279 31.5154C171.782 31.8193 171.216 32.4966 170.31 32.2905C168.815 31.9512 167.539 32.9074 166.162 33.2736C165.189 33.5328 164.172 34.3092 163.304 34.1497C160.628 33.6582 158.623 36.1914 155.994 35.5424C154.621 37.1188 152.731 36.6554 150.998 36.954C150.456 37.0472 148.962 37.0669 149.121 38.8146H145.129C143.831 39.2957 142.719 40.3569 141.113 40.1521C139.972 40.0064 139.029 41.2632 137.778 40.7815C133.606 42.3868 129.286 43.528 125.016 44.8235C122.196 45.6793 119.45 46.7674 116.545 47.364C114.961 47.6889 113.582 48.5965 111.898 48.8682C110.053 49.1662 108.11 49.7286 106.53 50.8784C105.51 51.62 104.426 50.9933 103.379 51.3601C102.304 52.6392 100.587 52.3984 99.1639 52.9175C94.3087 54.6895 89.2848 55.937 84.4034 57.667C81.7461 58.6088 79.0783 59.6483 76.3495 60.4129C73.6016 61.1827 70.855 61.9355 68.4012 63.3983C67.571 63.8938 66.5603 63.481 65.778 64.3165C65.4164 64.7024 64.2555 64.5107 63.9404 63.2165C64.0848 62.2748 65.4085 62.0477 66.1442 61.8508C69.1166 61.0567 71.5133 58.8995 74.5965 58.4585C80.0831 55.3024 86.3099 54.0043 92.076 51.5426C94.2089 50.6323 96.3628 49.6577 98.5739 49.0343C102.009 48.0649 105.111 46.2706 108.55 45.3702C110.711 44.8045 112.713 43.7853 114.819 43.0575C115.793 42.7208 116.866 43.1553 117.82 42.3198C118.491 41.7331 119.54 41.2113 120.707 41.4076C121.835 41.5972 122.1 39.671 123.44 40.1252C125.31 38.9879 127.572 39.062 129.516 38.157C131.076 37.4305 132.658 36.4854 134.304 36.3233C136.216 36.135 137.857 35.3133 139.636 34.8539C141.299 34.4247 142.882 33.6962 144.537 33.2336C147.866 32.3079 151.188 31.3563 154.503 30.3787C155.701 30.023 156.912 29.8839 157.971 29.0478C160.632 28.9605 161.164 28.5779 164.387 27.283C166.044 26.6169 167.9 25.9488 169.648 25.8143C172.087 25.6266 174.218 24.5424 176.529 24.0462C177.886 23.7549 179.578 24.4243 180.695 23.0809C183.186 23.4366 185.239 21.8168 187.639 21.5622C189.831 21.3299 191.922 20.2103 194.118 19.8966C195.098 19.7561 195.941 19.3847 196.728 19.0171C197.32 18.7402 197.85 18.3615 198.479 18.5105C200.242 18.9285 201.845 18.1082 203.438 17.7348C204.895 17.3928 206.496 17.3436 207.751 16.4425L208.484 17.1087C209.711 16.3178 211.314 16.3743 212.5 15.2159C214.036 15.1667 215.676 15.0158 217.336 14.6745C218.955 14.3418 220.576 14.1121 222.107 13.4578C222.2 13.4177 222.278 13.2471 222.346 13.2569C225.258 13.6796 227.932 12.6328 230.667 11.9431C232.455 11.4922 234.337 11.4758 236.067 10.7125C236.525 10.5104 237.132 10.6462 237.671 10.6246C238.817 10.5786 239.9 10.5937 241.05 10.0562C242.002 9.61128 243.235 9.83441 244.381 9.40389C245.589 8.95105 246.879 8.27903 248.35 8.62554C249.155 8.81521 249.984 8.21011 250.71 8.10445C253.386 7.71527 256.038 7.24012 258.69 6.71969C259.803 6.50115 260.935 6.74988 262.059 6.0982C262.89 5.61714 264.001 6.02928 265.093 5.5036C266.299 4.92213 268.022 5.64995 269.356 4.72459C271.74 5.22337 274.021 4.30063 276.286 3.94755C279.525 3.44221 282.936 3.6089 286.005 2.13423C286.183 2.04892 286.438 2.07254 286.646 2.10733C289.131 2.52144 291.439 1.02971 293.925 1.44382C295.326 1.6768 296.449 0.484339 297.927 0.744228C299.2 0.968021 300.654 1.12028 301.837 0.729787C305.67 -0.534215 309.566 0.579499 313.605 0L315.135 2.19527C314.897 3.01628 315.773 4.19824 315.976 5.64994C314.913 6.5858 314.111 7.84981 312.654 8.36565C313.137 8.91299 313.813 9.3212 314.016 10.0096C313.085 11.3524 310.806 10.8917 310.594 12.9531C309.186 13.8528 307.389 14.1652 306.107 15.4502C305.689 15.8689 305.103 16.2358 304.534 16.3684C301.692 17.0312 299.502 19.0112 296.879 20.079C291.357 22.3274 286.073 25.1363 280.403 27.0442C279.169 27.4589 278.123 28.4197 276.895 28.864C275.27 29.4488 273.737 30.4345 271.954 30.468C271.784 29.8681 272.2 29.2834 271.509 29.0287C271.07 29.4822 271.125 29.899 271.954 30.468ZM255.76 33.6661C256.774 33.4167 257.54 33.9259 258.35 32.8339C257.414 33.0925 256.754 32.555 256.137 33.5702C255.822 33.5138 255.623 33.6588 255.556 33.9581C255.544 34.0086 255.698 34.1622 255.749 34.151C256.049 34.0835 256.193 33.8853 255.76 33.6661ZM84.7473 102.265C85.3957 102.225 86.1944 102.787 86.6833 102.078C86.7627 101.572 86.7535 101.173 86.0152 101.071C85.4285 101.021 85.2204 101.747 84.9146 102.716C83.8783 102.273 83.018 102.198 81.9449 102.817C83.0409 103.123 83.9026 103.233 84.7473 102.265ZM41.7968 119.448L43.698 119.449C43.9691 119.063 44.5282 118.884 44.5492 118.314C43.4178 117.714 42.7182 118.35 42.0639 119.449C41.4174 119.698 40.4015 118.841 40.0937 120.105C39.8778 120.105 39.656 120.07 39.4479 120.11C35.8758 120.801 32.7053 122.556 29.3917 123.931C29.1469 124.032 28.8273 124.286 28.9303 124.693H27.8632C27.5331 125.254 27.5206 125.615 27.9013 125.966C28.8824 126.119 29.3156 125.518 29.5866 124.693C30.4345 125.027 30.8683 124.086 31.5863 124.043C32.4139 123.993 33.1515 124.036 33.9456 123.429C35.5686 122.188 37.5605 121.695 39.5831 121.409C39.9204 121.361 40.1679 121.168 40.0931 120.76C41.1129 120.865 41.8066 120.483 41.7968 119.448ZM53.2273 114.86C54.362 114.842 55.5453 115.066 56.5107 114.204H57.5771C57.9072 113.643 57.9197 113.283 57.5607 112.95C57.0521 112.87 56.531 112.762 56.5107 113.548C55.2952 113.682 53.749 112.992 53.2273 114.86C52.5808 115.109 51.5649 114.252 51.5039 115.328L47.9087 116.51C48.5283 116.903 48.6923 117.561 49.3506 117.489C50.0036 116.834 50.6461 116.188 51.2571 115.515C51.9035 115.265 52.9195 116.122 53.2273 114.86ZM64.3913 110.27H61.3855C60.8008 111.473 59.2539 111.52 58.4848 112.563C58.6915 112.863 59.036 113.009 59.3209 112.878C60.8756 112.157 62.9134 112.632 64.0973 110.946C64.2049 110.793 64.7221 110.926 65.0489 110.926C65.82 110.908 65.8988 110.264 65.612 109.918C65.1697 109.386 64.5659 109.344 64.3913 110.27ZM181.936 29.6345C181.936 29.5256 181.966 29.4035 181.927 29.3103C181.888 29.2171 181.724 29.0767 181.712 29.0858C181.073 29.563 180.158 29.5649 179.574 30.3873H176.83C176.642 30.8447 176.051 30.8979 176.196 31.5915C178.179 31.7208 180 30.7587 181.934 30.6045C181.943 30.6038 181.936 30.3997 181.936 30.2901C182.992 30.1851 184.059 30.4621 185.115 30.0821C187.319 29.288 189.361 27.8448 191.897 28.3239C192.926 27.0323 194.505 28.0286 195.754 27.3756C197.299 26.5677 199.019 26.128 200.806 26.3859C200.847 25.2965 201.637 25.0609 202.605 24.3737C199.607 24.4072 197.31 26.1431 194.729 25.8044C193.618 26.0433 192.909 27.287 191.628 27.0021C189.987 26.6379 188.502 27.4714 187.03 27.8054C185.554 28.1401 183.702 28.169 182.571 29.6207C182.489 29.7257 182.154 29.6345 181.936 29.6345ZM252.863 15.6865C254.121 16.2384 254.622 14.7703 255.761 15.1529C256.644 15.4489 257.725 15.0906 258.683 15.2435C259.821 15.4253 260.636 14.6148 261.665 14.4238C263.063 14.1652 264.534 14.1022 265.895 13.6428C266.655 13.3869 267.325 12.7417 268.083 12.6472C268.845 12.5521 269.58 11.6746 270.415 12.434C271.056 11.3032 271.812 13.3357 272.46 12.3598C272.645 12.0251 272.416 11.5073 272.935 11.3143C273.563 12.4248 274.267 11.8177 274.965 11.3872C275.845 12.7857 276.573 11.1608 277.416 11.25C278.495 11.3649 279.867 11.6878 280.626 11.1857C281.896 10.3457 283.118 10.704 284.345 10.6574C285.617 10.6088 286.627 9.66312 288.008 9.92432C289.676 10.2393 291.345 9.84622 292.973 9.33039C293.75 9.08428 293.638 8.68526 293.43 8.17073C290.72 7.29984 288.187 8.76402 285.554 8.65507C284.316 9.90333 282.683 8.98912 281.293 9.43211C279.218 10.0936 277.059 10.6646 274.914 10.555C272.316 10.4218 269.914 11.7442 267.323 11.2907C267.152 11.2605 266.953 11.4436 266.759 11.4889C265.166 11.8604 263.551 12.5816 261.981 12.4963C260.107 12.3946 258.426 13.0456 256.707 13.3711C255.6 13.5805 254.5 13.8594 253.354 13.9152C253.183 13.9237 253.022 14.1331 252.864 14.2453L252.863 15.6865ZM244.254 15.9319C242.064 15.6707 240.226 16.0153 238.477 16.8074C238.202 16.9315 238.016 17.194 237.646 17.1874C234.694 17.1336 231.874 17.9802 228.995 18.3858C227.446 18.6037 225.73 18.6404 224.415 19.256C222.842 19.993 221.134 19.5724 219.639 20.4177C218.668 20.967 217.531 21.1691 216.326 21.1835C215.459 21.194 214.311 21.4789 213.996 22.8557C215.783 23.5514 216.95 22.1397 218.51 21.9606C219.001 22.5237 219.721 22.672 220.602 22.1804C222.925 20.8849 225.435 20.3428 228.082 20.4629C229.607 20.5318 231.032 20.3717 232.091 19.2271C233.149 18.8767 234.193 19.4214 235.267 18.7756C236.121 18.2624 237.328 18.099 238.352 18.1686C239.362 18.2375 240.234 17.4342 241.199 17.8463C242.257 18.2979 243.134 16.8206 244.252 17.6888C244.254 17.1244 244.254 16.6105 244.254 15.9319ZM66.4875 109.531C69.0975 110.082 70.966 107.82 73.3962 107.596C74.6136 107.485 75.7004 106.707 76.507 105.71C77.2807 105.492 78.2081 106.036 78.8519 105.288L78.6806 104.272C78.1444 104.658 77.6489 104.318 76.9454 104.551C73.9717 105.538 71.3269 107.293 68.2798 108.128C67.6786 108.293 66.6817 107.732 66.3588 108.774L66.4875 109.531ZM245.12 16.4084C247.317 17.0096 249.331 15.8565 251.48 15.676V14.5098C249.222 14.7644 246.9 13.9218 244.96 15.6504L245.12 16.4084ZM301.531 51.37C302.447 50.9565 304.101 51.8569 304.769 49.9137C303.818 50.0896 303.015 50.2385 302.214 50.3895C301.979 50.1893 301.814 49.8572 301.452 49.9511C300.823 49.8894 300.701 50.738 300.054 50.6264C299.625 50.5511 299.185 50.5527 298.756 50.631C298.381 50.7032 297.698 50.2267 297.671 51.1127C298.672 51.5616 299.814 50.9106 300.718 51.4914L300.917 52.4633C301.709 52.4673 301.357 51.9127 301.531 51.37ZM300.847 6.91395C299.661 6.61994 298.802 6.68097 297.73 7.24472C296.813 7.72709 295.44 7.34447 294.314 7.34447V9.32711C296.358 8.0152 298.835 8.33021 300.847 6.91395ZM207.701 23.0178C206.464 24.3435 204.579 23.3762 202.932 23.9248C203.132 24.5903 202.512 25.3417 203.42 25.7106C204.325 25.7854 204.554 24.8725 205.293 24.4131C206.147 24.2123 207.243 24.6638 208.225 24.1342C208.148 23.7732 208.344 23.4208 207.701 23.0178ZM212.736 22.5374H208.921V23.6197H212.736V22.5374ZM242.33 43.9389C242.37 43.2924 242.443 42.8442 241.839 42.747C241.075 42.6256 240.74 43.5346 239.87 43.4729C239.183 43.4237 238.45 44.0163 237.501 44.4258C239.469 45.2829 240.803 43.8004 242.33 43.9389ZM21.2433 127.229C20.2766 127.668 19.151 127.959 18.4383 129.038C19.9235 129.769 20.7012 128.577 21.6206 128.384C21.7735 127.771 21.6305 127.516 21.2433 127.229ZM93.046 99.4198C91.2156 98.6998 90.4117 99.702 89.2586 100.104C90.7044 100.99 91.5155 99.8254 93.046 99.4198ZM281.729 52.2415C282.318 52.7987 282.843 53.3736 283.614 54.0666C283.67 53.0592 283.99 52.4279 283.388 51.918C282.896 52.0374 282.343 51.7001 281.729 52.2415ZM267.249 29.0058C266.138 28.8962 265.765 29.4468 265.383 30.0506C266.042 30.3905 266.621 30.4155 267.249 30.0394V29.0058ZM315.107 50.1368C314.526 50.1309 313.88 49.7188 313.221 50.3206C313.981 50.713 314.562 50.7432 315.107 50.1368ZM269.243 27.9951C269.93 28.5123 270.587 28.5123 271.274 27.9951C270.587 27.4779 269.93 27.4779 269.243 27.9951ZM79.4878 104.042C79.9321 104.518 80.3698 104.518 80.8142 104.042C80.3698 103.566 79.9321 103.566 79.4878 104.042ZM247.458 37.0394C247.141 37.2047 246.584 36.3909 246.381 37.2861C246.777 37.6031 247.141 37.6254 247.458 37.0394ZM263.875 30.4837C263.558 30.6491 263.001 29.8353 262.798 30.7305C263.194 31.0468 263.558 31.0698 263.875 30.4837ZM265.005 30.949C264.699 31.1643 264.699 31.3828 265.005 31.5974C265.311 31.3822 265.311 31.1636 265.005 30.949Z" fill="#F9E6E6"/>
<path d="M112.703 52.5383C112.231 52.2443 112.137 51.8171 111.312 52.077C109.554 53.6954 106.743 53.6166 104.291 54.5505C102.304 55.3078 100.184 55.6242 98.2083 56.4485C97.5993 56.7025 96.7337 56.713 95.8438 56.2129C98.4899 54.0373 102.092 54.4612 105.035 52.6007H108.094L108.967 51.4916C110.176 50.9285 111.599 51.924 112.109 50.6272C112.987 50.5695 113.105 51.485 113.149 51.4699C114.602 51.0223 114.187 49.8712 115.504 49.4249C117.928 49.1965 120.618 47.9338 123.408 47.0275C125.31 46.4093 127.133 45.7261 129.151 46.1127C129.548 46.3286 129.34 46.6994 129.438 47.0748C127.197 47.7415 125.004 48.7201 122.729 48.9813C120.336 49.2562 118.463 51.401 115.792 50.4395C115.398 52.2633 113.525 51.4771 112.703 52.5383Z" fill="#F9E6E6"/>
<path d="M92.9579 56.5156C93.267 56.8241 93.5755 57.1338 94.113 57.6727C92.425 57.6661 91.0494 58.281 89.2617 58.7155C90.6281 57.1253 91.2745 56.7729 92.9579 56.5156Z" fill="#F9E6E6"/>
<path d="M84.4117 59.1328H85.0594C85.4552 59.4242 85.4932 59.7957 85.316 60.1875C85.0903 60.5845 84.7326 60.3988 84.432 60.4473C83.9313 60.0129 83.9438 59.5758 84.4117 59.1328Z" fill="#F9E6E6"/>
<path d="M252.863 15.6843V14.2431C253.022 14.1315 253.183 13.9215 253.354 13.913C254.5 13.8572 255.6 13.5783 256.706 13.3689C258.427 13.0434 260.107 12.3924 261.981 12.4941C263.551 12.5794 265.166 11.8588 266.759 11.4867C266.954 11.4414 267.152 11.2583 267.323 11.2885C269.914 11.742 272.316 10.4196 274.914 10.5528C277.058 10.6624 279.217 10.0914 281.293 9.4299C282.683 8.98691 284.316 9.90111 285.553 8.65286C288.186 8.76181 290.72 7.29763 293.43 8.16852C293.638 8.68305 293.75 9.08141 292.973 9.32817C291.344 9.84401 289.677 10.2371 288.008 9.92211C286.626 9.66091 285.616 10.6073 284.345 10.6552C283.118 10.7018 281.895 10.3435 280.625 11.1835C279.867 11.6849 278.494 11.362 277.416 11.2478C276.573 11.1586 275.845 12.7835 274.965 11.385C274.267 11.8155 273.562 12.4226 272.935 11.3121C272.415 11.5051 272.646 12.0229 272.459 12.3576C271.812 13.3328 271.055 11.301 270.414 12.4317C269.581 11.6718 268.844 12.5499 268.083 12.645C267.325 12.7395 266.654 13.3847 265.895 13.6406C264.533 14.1 263.063 14.163 261.665 14.4216C260.635 14.6119 259.821 15.4224 258.683 15.2413C257.725 15.0884 256.643 15.4467 255.761 15.1507C254.622 14.7681 254.122 16.2362 252.863 15.6843Z" fill="#F9E6E6"/>
<path d="M244.252 15.9296V17.6871C243.134 16.8189 242.256 18.2962 241.199 17.8446C240.234 17.4325 239.362 18.2358 238.351 18.1669C237.328 18.0973 236.12 18.2601 235.266 18.7739C234.192 19.4191 233.148 18.875 232.091 19.2255C231.033 20.37 229.606 20.5302 228.082 20.4612C225.434 20.3411 222.924 20.8832 220.602 22.1787C219.721 22.6703 219 22.522 218.509 21.9589C216.95 22.1381 215.782 23.5497 213.996 22.8541C214.31 21.4772 215.459 21.1924 216.326 21.1819C217.53 21.1674 218.668 20.9653 219.638 20.416C221.133 19.57 222.841 19.9907 224.415 19.2543C225.73 18.6381 227.445 18.602 228.994 18.3841C231.874 17.9785 234.695 17.1319 237.645 17.1857C238.015 17.1923 238.201 16.9304 238.476 16.8058C240.224 16.013 242.062 15.6691 244.252 15.9296Z" fill="#F9E6E6"/>
<path d="M181.938 29.6358C182.155 29.6358 182.491 29.727 182.573 29.622C183.704 28.1703 185.556 28.1414 187.032 27.8067C188.504 27.4727 189.989 26.6392 191.63 27.0034C192.911 27.2882 193.62 26.0446 194.73 25.8057C197.312 26.1437 199.609 24.4085 202.607 24.375C201.639 25.0621 200.848 25.2977 200.808 26.3872C199.021 26.1292 197.301 26.569 195.756 27.3768C194.507 28.0298 192.929 27.0336 191.899 28.3252C189.363 27.8461 187.32 29.2899 185.117 30.0834C184.061 30.4633 182.993 30.1864 181.938 30.2914V29.6358Z" fill="#F9E6E6"/>
<path d="M28.93 124.697C28.827 124.289 29.1466 124.035 29.3914 123.934C32.705 122.56 35.8755 120.804 39.4476 120.113C39.6557 120.073 39.8781 120.108 40.0934 120.108V120.763C40.1682 121.171 39.9201 121.365 39.5835 121.412C37.5608 121.699 35.569 122.191 33.946 123.432C33.1519 124.039 32.4142 123.996 31.5866 124.046C30.8687 124.089 30.4349 125.031 29.587 124.697H28.93Z" fill="#F9E6E6"/>
<path d="M245.121 16.4064L244.961 15.6484C246.901 13.9198 249.223 14.7625 251.481 14.5078V15.674C249.332 15.8539 247.318 17.0076 245.121 16.4064Z" fill="#F9E6E6"/>
<path d="M65.0485 110.922C64.7217 110.922 64.2052 110.789 64.0969 110.942C62.913 112.628 60.8752 112.153 59.3205 112.874C59.0357 113.006 58.6911 112.859 58.4844 112.56C59.2542 111.517 60.8004 111.469 61.3851 110.266H64.3909C64.8464 110.25 65.0656 110.469 65.0485 110.922Z" fill="#F9E6E6"/>
<path d="M301.531 51.3697C301.358 51.9124 301.71 52.467 300.917 52.4631L300.719 51.4911C299.815 50.9103 298.673 51.5613 297.672 51.1124C297.697 50.2264 298.381 50.7029 298.756 50.6307C299.185 50.5524 299.625 50.5509 300.055 50.6261C300.702 50.7377 300.824 49.8891 301.453 49.9508C301.815 49.857 301.979 50.189 302.214 50.3886C303.016 50.2389 303.819 50.0899 304.77 49.9141C304.101 51.8567 302.447 50.9562 301.531 51.3697Z" fill="#F9E6E6"/>
<path d="M300.846 6.91529C298.834 8.3309 296.357 8.01654 294.312 9.32845V7.34581C295.439 7.34581 296.812 7.72843 297.729 7.24606C298.802 6.68297 299.66 6.62128 300.846 6.91529Z" fill="#F9E6E6"/>
<path d="M181.934 29.635V30.2907C181.934 30.3996 181.942 30.6043 181.933 30.605C179.998 30.7599 178.177 31.7214 176.194 31.5921C176.05 30.8977 176.641 30.8446 176.829 30.3878H179.572C180.156 29.5655 181.072 29.5641 181.71 29.0864C181.723 29.0772 181.887 29.2176 181.926 29.3108C181.964 29.404 181.934 29.5254 181.934 29.635Z" fill="#F9E6E6"/>
<path d="M207.703 23.0156C208.346 23.4186 208.15 23.771 208.227 24.1313C207.245 24.6616 206.149 24.2101 205.295 24.4102C204.557 24.8696 204.328 25.7825 203.422 25.7077C202.514 25.3389 203.134 24.5874 202.933 23.922C204.581 23.374 206.466 24.3407 207.703 23.0156Z" fill="#F9E6E6"/>
<path d="M212.737 22.5391V23.6213H208.922V22.5391H212.737Z" fill="#F9E6E6"/>
<path d="M21.2425 127.227C21.6297 127.514 21.7727 127.769 21.6198 128.382C20.701 128.575 19.9227 129.767 18.4375 129.036C19.1502 127.957 20.2758 127.666 21.2425 127.227Z" fill="#F9E6E6"/>
<path d="M51.5053 115.328L49.352 117.489C48.6938 117.561 48.5297 116.903 47.9102 116.51L51.5053 115.328Z" fill="#F9E6E6"/>
<path d="M56.5099 114.206C55.5446 115.067 54.3613 114.843 53.2266 114.861C53.7477 112.994 55.2939 113.684 56.5099 113.55V114.206Z" fill="#F9E6E6"/>
<path d="M93.0452 99.4172C91.5148 99.8227 90.7036 100.987 89.2578 100.101C90.4109 99.6993 91.2148 98.6979 93.0452 99.4172Z" fill="#F9E6E6"/>
<path d="M281.73 52.2376C282.345 51.6968 282.898 52.0335 283.39 51.9141C283.991 52.424 283.671 53.0554 283.615 54.0627C282.845 53.3697 282.318 52.7948 281.73 52.2376Z" fill="#F9E6E6"/>
<path d="M41.7969 119.452C42.7183 118.353 43.4179 117.717 44.5493 118.317C44.5283 118.887 43.9698 119.066 43.6981 119.452H41.7969Z" fill="#F9E6E6"/>
<path d="M84.7461 102.267C85.2193 101.749 85.4273 101.022 86.014 101.073C86.7523 101.175 86.7615 101.574 86.6821 102.08C86.1932 102.788 85.3945 102.227 84.7461 102.267Z" fill="#F9E6E6"/>
<path d="M40.0938 120.758V120.102C40.4015 118.839 41.4175 119.696 42.0639 119.446C41.806 120.481 41.1123 120.863 40.0938 120.758Z" fill="#F9E6E6"/>
<path d="M267.249 29.0062V30.0398C266.62 30.4159 266.041 30.391 265.383 30.051C265.764 29.4472 266.137 28.8966 267.249 29.0062Z" fill="#F9E6E6"/>
<path d="M28.9312 124.695H29.5882C29.3171 125.52 28.884 126.121 27.9028 125.969C27.5222 125.616 27.5347 125.256 27.8648 124.695H28.9312Z" fill="#F9E6E6"/>
<path d="M84.915 102.715C83.903 103.232 83.042 103.122 81.9453 102.816C83.0177 102.198 83.8781 102.272 84.915 102.715Z" fill="#F9E6E6"/>
<path d="M315.106 50.1353C314.56 50.7418 313.979 50.7109 313.219 50.3191C313.879 49.7173 314.524 50.1294 315.106 50.1353Z" fill="#F9E6E6"/>
<path d="M269.242 27.9972C269.929 27.4801 270.586 27.4801 271.273 27.9972C270.586 28.5144 269.929 28.5144 269.242 27.9972Z" fill="#F9E6E6"/>
<path d="M255.762 33.6681C256.755 32.557 257.414 33.0952 258.351 32.8359C257.541 33.928 256.775 33.4194 255.762 33.6681Z" fill="#F9E6E6"/>
<path d="M53.228 114.861C52.9202 116.124 51.9043 115.267 51.2578 115.516C51.5663 114.253 52.5822 115.11 53.228 114.861Z" fill="#F9E6E6"/>
<path d="M272.008 30.6483C271.126 29.9008 271.072 29.4847 271.51 29.0312C272.201 29.2852 271.785 29.87 272.008 30.6483Z" fill="#F9E6E6"/>
<path d="M247.456 37.0405C247.14 37.6266 246.776 37.6036 246.379 37.2873C246.582 36.3921 247.14 37.2059 247.456 37.0405Z" fill="#F9E6E6"/>
<path d="M263.874 30.4859C263.558 31.0719 263.194 31.0489 262.797 30.7326C262.999 29.8374 263.558 30.6512 263.874 30.4859Z" fill="#F9E6E6"/>
<path d="M256.137 33.5745C256.193 33.8889 256.048 34.0877 255.748 34.1553C255.698 34.1665 255.544 34.0136 255.555 33.9624C255.623 33.6625 255.822 33.5181 256.137 33.5745Z" fill="#F9E6E6"/>
<path d="M265.007 30.9453C265.313 31.1606 265.313 31.3791 265.007 31.5937C264.701 31.3785 264.701 31.1599 265.007 30.9453Z" fill="#F9E6E6"/>
</g>
<g clip-path="url(#clip2_8_50)">
<path d="M83.2411 55.2455V67.6772H82.1262C82.1262 64.704 81.1785 61.9538 79.283 59.4265C77.3876 56.8993 74.6745 55.6357 71.1438 55.6357C69.1741 55.6357 67.5481 56.7878 66.2659 59.0921C64.9837 61.3963 64.3426 65.3358 64.3426 70.9106C64.3426 76.4853 64.9837 80.4248 66.2659 82.7291C67.5481 85.0333 69.555 86.1854 72.2867 86.1854C75.0183 86.1854 77.3226 85.3306 79.1994 83.621C81.0763 81.9114 82.2377 79.4957 82.6837 76.3738H83.7986C83.2783 80.0532 81.9868 82.7941 79.9241 84.5966C77.8615 86.3991 75.3993 87.3004 72.5375 87.3004C66.9999 87.3004 62.7538 85.9717 59.7991 83.3144C56.8445 80.6571 55.3672 76.4946 55.3672 70.8269C55.3672 65.1593 56.8073 61.0246 59.6876 58.4231C62.568 55.8215 66.3867 54.5207 71.1438 54.5207C73.7082 54.5207 76.1983 55.2083 78.6141 56.5834C79.3945 57.0666 80.0356 57.3081 80.5374 57.3081C81.0391 57.3081 81.4386 57.0758 81.7359 56.6113C82.0333 56.1467 82.1819 55.6914 82.1819 55.2455H83.2411ZM96.6206 83.0914C97.4383 84.9683 98.8505 85.9067 100.857 85.9067C102.864 85.9067 104.295 84.959 105.15 83.0636C106.005 81.1681 106.432 78.037 106.432 73.6701C106.432 69.3032 106.005 66.1627 105.15 64.2487C104.295 62.3347 102.864 61.3777 100.857 61.3777C98.8505 61.3777 97.4383 62.3347 96.6206 64.2487C95.803 66.1627 95.3942 69.3125 95.3942 73.6979C95.3942 78.0834 95.803 81.2146 96.6206 83.0914ZM100.746 87.0216C97.2153 87.0216 94.0191 85.8695 91.1573 83.5653C88.2956 81.261 86.8647 77.9905 86.8647 73.7537C86.8647 71.4866 87.2829 69.4611 88.1191 67.6772C88.9553 65.8933 90.0702 64.481 91.4639 63.4404C92.8576 62.3998 94.3535 61.61 95.9516 61.0711C97.5498 60.5322 99.185 60.2628 100.857 60.2628C102.53 60.2628 104.174 60.5322 105.791 61.0711C107.408 61.61 108.913 62.3998 110.307 63.4404C111.7 64.481 112.825 65.8933 113.679 67.6772C114.534 69.4611 114.962 71.468 114.962 73.6979C114.962 75.9279 114.534 77.9162 113.679 79.6629C112.825 81.4097 111.691 82.8034 110.279 83.844C107.454 85.9624 104.277 87.0216 100.746 87.0216ZM128.062 83.0914C128.88 84.9683 130.292 85.9067 132.299 85.9067C134.306 85.9067 135.737 84.959 136.592 83.0636C137.447 81.1681 137.874 78.037 137.874 73.6701C137.874 69.3032 137.447 66.1627 136.592 64.2487C135.737 62.3347 134.306 61.3777 132.299 61.3777C130.292 61.3777 128.88 62.3347 128.062 64.2487C127.245 66.1627 126.836 69.3125 126.836 73.6979C126.836 78.0834 127.245 81.2146 128.062 83.0914ZM132.188 87.0216C128.657 87.0216 125.461 85.8695 122.599 83.5653C119.737 81.261 118.307 77.9905 118.307 73.7537C118.307 71.4866 118.725 69.4611 119.561 67.6772C120.397 65.8933 121.512 64.481 122.906 63.4404C124.299 62.3998 125.795 61.61 127.393 61.0711C128.992 60.5322 130.627 60.2628 132.299 60.2628C133.972 60.2628 135.616 60.5322 137.233 61.0711C138.85 61.61 140.355 62.3998 141.749 63.4404C143.142 64.481 144.266 65.8933 145.121 67.6772C145.976 69.4611 146.403 71.468 146.403 73.6979C146.403 75.9279 145.976 77.9162 145.121 79.6629C144.266 81.4097 143.133 82.8034 141.721 83.844C138.896 85.9624 135.718 87.0216 132.188 87.0216ZM161.455 49.1132V85.3492H164.243V86.4642H150.306V85.3492H153.093V50.2282H150.306V49.1132H161.455ZM198.639 85.3492H201.036V86.4642H186.542V85.3492H189.051L181.636 71.8025L179.295 74.7572V85.3492H182.082V86.4642H168.145V85.3492H170.933V56.3604H168.145V55.2455H182.082V56.3604H179.295V72.806L192.228 56.3604H187.099V55.2455H198.472V56.3604H193.733L187.155 64.7226L198.639 85.3492ZM214.973 60.8202V85.3492H217.761V86.4642H203.824V85.3492H206.611V61.9352H204.381V60.8202H214.973ZM215.475 53.4337C215.475 54.7902 215.001 55.9423 214.054 56.89C213.106 57.8377 211.954 58.3116 210.597 58.3116C209.241 58.3116 208.079 57.8377 207.113 56.89C206.147 55.9423 205.663 54.7902 205.663 53.4337C205.663 52.0771 206.147 50.9157 207.113 49.9494C208.079 48.9831 209.241 48.5 210.597 48.5C211.954 48.5 213.106 48.9831 214.054 49.9494C215.001 50.9157 215.475 52.0771 215.475 53.4337ZM232.199 87.1331C229.189 87.1331 226.588 85.9439 224.395 83.5653C222.202 81.1867 221.106 77.8233 221.106 73.475C221.106 69.1266 222.183 65.726 224.339 63.2731C226.495 60.8202 229.115 59.5938 232.199 59.5938C233.723 59.5938 235.154 59.9097 236.492 60.5415C237.83 61.1733 238.796 62.121 239.391 63.3846V50.2282H236.604V49.1132H247.753V85.3492H250.541V86.4642H239.391V83.8998C238.387 86.0553 235.99 87.1331 232.199 87.1331ZM239.391 74.2554V65.0571C238.387 63.0501 237.077 62.0467 235.461 62.0467C233.844 62.0467 232.46 62.9758 231.308 64.8341C230.155 66.6923 229.579 69.6377 229.579 73.6701C229.579 77.7025 230.174 80.6478 231.363 82.5061C232.553 84.3643 233.983 85.1634 235.656 84.9032C236.585 84.7546 237.291 84.4572 237.774 84.0113C238.852 82.9706 239.391 79.7187 239.391 74.2554ZM266.707 86.0182C270.573 86.0182 272.505 84.959 272.505 82.8406C272.505 81.6513 271.836 80.6757 270.498 79.9138C269.16 79.1519 267.544 78.5294 265.648 78.0463C263.753 77.5631 261.885 77.0056 260.046 76.3738C258.206 75.742 256.682 74.7386 255.474 73.3635C254.266 71.9884 253.774 70.1858 253.997 67.9559C254.22 65.726 255.363 63.8864 257.425 62.4369C259.488 60.9875 262.034 60.2628 265.063 60.2628C268.092 60.2628 270.535 60.7459 272.394 61.7122C274.252 62.6785 275.293 63.9793 275.516 65.6145C275.664 66.618 275.506 67.5471 275.042 68.4019C274.577 69.2567 273.815 69.7027 272.756 69.7399C271.697 69.777 270.823 69.4983 270.136 68.9036C269.448 68.309 269.123 67.6215 269.16 66.841C269.197 66.0605 269.495 65.3637 270.052 64.7504C270.61 64.1372 270.889 63.6448 270.889 63.2731C270.889 62.6413 270.285 62.1675 269.077 61.8516C267.869 61.5357 266.475 61.3777 264.896 61.3777C263.316 61.3777 262.025 61.7308 261.021 62.4369C260.018 63.1431 259.516 64.0164 259.516 65.0571C259.516 66.0977 260.138 66.9896 261.384 67.7329C262.629 68.4762 264.143 69.0802 265.927 69.5447C267.711 70.0093 269.486 70.5296 271.251 71.1057C273.016 71.6817 274.521 72.6016 275.766 73.8652C277.011 75.1288 277.634 76.7269 277.634 78.6595C277.634 81.2239 276.723 83.2773 274.902 84.8196C273.081 86.362 270.331 87.1331 266.652 87.1331C262.972 87.1331 259.99 86.5757 257.704 85.4607C255.418 84.3458 254.164 82.9149 253.941 81.1681C253.792 80.1647 253.96 79.2355 254.443 78.3807C254.926 77.526 255.688 77.08 256.729 77.0428C257.769 77.0056 258.633 77.2844 259.321 77.879C260.008 78.4737 260.334 79.1612 260.296 79.9417C260.259 80.7222 259.962 81.419 259.404 82.0322C258.847 82.6454 258.568 83.1379 258.568 83.5095C258.568 84.2528 259.432 84.8568 261.161 85.3213C262.889 85.7859 264.738 86.0182 266.707 86.0182Z" fill="#1E1E1E"/>
</g>
</g>
<defs>
<clipPath id="clip0_8_50">
<rect width="333" height="135.801" fill="white"/>
</clipPath>
<clipPath id="clip1_8_50">
<rect width="333" height="135.801" fill="white"/>
</clipPath>
<clipPath id="clip2_8_50">
<rect width="222.267" height="38.8004" fill="white" transform="translate(55.3672 48.5)"/>
</clipPath>
</defs>
</svg>
