<svg width="1440" height="272" viewBox="0 0 1440 272" fill="none" xmlns="http://www.w3.org/2000/svg">
<path d="M-203 178C-138.833 144.667 -74.6667 144.667 -10.5 178C53.6667 211.333 117.833 211.333 182 178C246.167 144.667 310.333 144.667 374.5 178C438.667 211.333 502.833 211.333 567 178C631.167 144.667 695.333 144.667 759.5 178C823.667 211.333 887.833 211.333 952 178C1016.17 144.667 1080.33 144.667 1144.5 178C1208.67 211.333 1272.83 211.333 1337 178C1401.17 144.667 1465.33 144.667 1529.5 178C1593.67 211.333 1657.83 211.333 1722 178" stroke="#F2CDC8"/>
<path d="M-203 216C-138.833 182.667 -74.6667 182.667 -10.5 216C53.6667 249.333 117.833 249.333 182 216C246.167 182.667 310.333 182.667 374.5 216C438.667 249.333 502.833 249.333 567 216C631.167 182.667 695.333 182.667 759.5 216C823.667 249.333 887.833 249.333 952 216C1016.17 182.667 1080.33 182.667 1144.5 216C1208.67 249.333 1272.83 249.333 1337 216C1401.17 182.667 1465.33 182.667 1529.5 216C1593.67 249.333 1657.83 249.333 1722 216" stroke="#140005" stroke-opacity="0.12"/>
<path d="M-203 246C-138.833 212.667 -74.6667 212.667 -10.5 246C53.6667 279.333 117.833 279.333 182 246C246.167 212.667 310.333 212.667 374.5 246C438.667 279.333 502.833 279.333 567 246C631.167 212.667 695.333 212.667 759.5 246C823.667 279.333 887.833 279.333 952 246C1016.17 212.667 1080.33 212.667 1144.5 246C1208.67 279.333 1272.83 279.333 1337 246C1401.17 212.667 1465.33 212.667 1529.5 246C1593.67 279.333 1657.83 279.333 1722 246" stroke="#140005" stroke-opacity="0.12"/>
<path d="M-203 140C-138.833 106.667 -74.6667 106.667 -10.5 140C53.6667 173.333 117.833 173.333 182 140C246.167 106.667 310.333 106.667 374.5 140C438.667 173.333 502.833 173.333 567 140C631.167 106.667 695.333 106.667 759.5 140C823.667 173.333 887.833 173.333 952 140C1016.17 106.667 1080.33 106.667 1144.5 140C1208.67 173.333 1272.83 173.333 1337 140C1401.17 106.667 1465.33 106.667 1529.5 140C1593.67 173.333 1657.83 173.333 1722 140" stroke="#F2CDC8"/>
<path d="M-203 102C-138.833 68.6667 -74.6667 68.6667 -10.5 102C53.6667 135.333 117.833 135.333 182 102C246.167 68.6667 310.333 68.6667 374.5 102C438.667 135.333 502.833 135.333 567 102C631.167 68.6667 695.333 68.6667 759.5 102C823.667 135.333 887.833 135.333 952 102C1016.17 68.6667 1080.33 68.6667 1144.5 102C1208.67 135.333 1272.83 135.333 1337 102C1401.17 68.6667 1465.33 68.6667 1529.5 102C1593.67 135.333 1657.83 135.333 1722 102" stroke="#F7D4D1"/>
<path d="M-203 64C-138.833 30.6667 -74.6667 30.6667 -10.5 64C53.6667 97.3333 117.833 97.3333 182 64C246.167 30.6667 310.333 30.6667 374.5 64C438.667 97.3333 502.833 97.3333 567 64C631.167 30.6667 695.333 30.6667 759.5 64C823.667 97.3333 887.833 97.3333 952 64C1016.17 30.6667 1080.33 30.6667 1144.5 64C1208.67 97.3333 1272.83 97.3333 1337 64C1401.17 30.6667 1465.33 30.6667 1529.5 64C1593.67 97.3333 1657.83 97.3333 1722 64" stroke="#F7D4D1"/>
<path d="M-203 26C-138.833 -7.33333 -74.6667 -7.33333 -10.5 26C53.6667 59.3333 117.833 59.3333 182 26C246.167 -7.33333 310.333 -7.33333 374.5 26C438.667 59.3333 502.833 59.3333 567 26C631.167 -7.33333 695.333 -7.33333 759.5 26C823.667 59.3333 887.833 59.3333 952 26C1016.17 -7.33333 1080.33 -7.33333 1144.5 26C1208.67 59.3333 1272.83 59.3333 1337 26C1401.17 -7.33333 1465.33 -7.33333 1529.5 26C1593.67 59.3333 1657.83 59.3333 1722 26" stroke="#F7D4D1"/>
</svg>
