<svg width="84" height="12" viewBox="0 0 84 12" fill="none" xmlns="http://www.w3.org/2000/svg">
<rect width="12" height="12" rx="4" fill="white"/>
<path d="M6.86498 1.75507L7.74499 3.51507C7.86498 3.76007 8.18499 3.99507 8.45499 4.04007L10.05 4.30507C11.07 4.47507 11.31 5.21507 10.575 5.94507L9.33498 7.18507C9.12498 7.39507 9.00998 7.80007 9.07498 8.09007L9.42999 9.62507C9.70998 10.8401 9.06499 11.3101 7.98998 10.6751L6.49499 9.79007C6.22499 9.63007 5.77999 9.63007 5.50499 9.79007L4.00999 10.6751C2.93999 11.3101 2.28999 10.8351 2.56999 9.62507L2.92499 8.09007C2.98998 7.80007 2.87499 7.39507 2.66499 7.18507L1.42499 5.94507C0.694985 5.21507 0.929985 4.47507 1.94999 4.30507L3.54499 4.04007C3.80999 3.99507 4.12999 3.76007 4.24998 3.51507L5.12999 1.75507C5.60999 0.800068 6.38999 0.800068 6.86498 1.75507Z" fill="#FBD71D"/>
<rect x="18" width="12" height="12" rx="4" fill="white"/>
<path d="M24.865 1.75507L25.745 3.51507C25.865 3.76007 26.185 3.99507 26.455 4.04007L28.05 4.30507C29.07 4.47507 29.31 5.21507 28.575 5.94507L27.335 7.18507C27.125 7.39507 27.01 7.80007 27.075 8.09007L27.43 9.62507C27.71 10.8401 27.065 11.3101 25.99 10.6751L24.495 9.79007C24.225 9.63007 23.78 9.63007 23.505 9.79007L22.01 10.6751C20.94 11.3101 20.29 10.8351 20.57 9.62507L20.925 8.09007C20.99 7.80007 20.875 7.39507 20.665 7.18507L19.425 5.94507C18.695 5.21507 18.93 4.47507 19.95 4.30507L21.545 4.04007C21.81 3.99507 22.13 3.76007 22.25 3.51507L23.13 1.75507C23.61 0.800068 24.39 0.800068 24.865 1.75507Z" fill="#FBD71D"/>
<rect x="36" width="12" height="12" rx="4" fill="white"/>
<path d="M42.865 1.75507L43.745 3.51507C43.865 3.76007 44.185 3.99507 44.455 4.04007L46.05 4.30507C47.07 4.47507 47.31 5.21507 46.575 5.94507L45.335 7.18507C45.125 7.39507 45.01 7.80007 45.075 8.09007L45.43 9.62507C45.71 10.8401 45.065 11.3101 43.99 10.6751L42.495 9.79007C42.225 9.63007 41.78 9.63007 41.505 9.79007L40.01 10.6751C38.94 11.3101 38.29 10.8351 38.57 9.62507L38.925 8.09007C38.99 7.80007 38.875 7.39507 38.665 7.18507L37.425 5.94507C36.695 5.21507 36.93 4.47507 37.95 4.30507L39.545 4.04007C39.81 3.99507 40.13 3.76007 40.25 3.51507L41.13 1.75507C41.61 0.800068 42.39 0.800068 42.865 1.75507Z" fill="#FBD71D"/>
<rect x="54" width="12" height="12" rx="4" fill="white"/>
<path d="M60.865 1.75507L61.745 3.51507C61.865 3.76007 62.185 3.99507 62.455 4.04007L64.05 4.30507C65.07 4.47507 65.31 5.21507 64.575 5.94507L63.335 7.18507C63.125 7.39507 63.01 7.80007 63.075 8.09007L63.43 9.62507C63.71 10.8401 63.065 11.3101 61.99 10.6751L60.495 9.79007C60.225 9.63007 59.78 9.63007 59.505 9.79007L58.01 10.6751C56.94 11.3101 56.29 10.8351 56.57 9.62507L56.925 8.09007C56.99 7.80007 56.875 7.39507 56.665 7.18507L55.425 5.94507C54.695 5.21507 54.93 4.47507 55.95 4.30507L57.545 4.04007C57.81 3.99507 58.13 3.76007 58.25 3.51507L59.13 1.75507C59.61 0.800068 60.39 0.800068 60.865 1.75507Z" fill="#FBD71D"/>
<rect x="72" width="12" height="12" rx="4" fill="white"/>
<path d="M78.865 1.75507L79.745 3.51507C79.865 3.76007 80.185 3.99507 80.455 4.04007L82.05 4.30507C83.07 4.47507 83.31 5.21507 82.575 5.94507L81.335 7.18507C81.125 7.39507 81.01 7.80007 81.075 8.09007L81.43 9.62507C81.71 10.8401 81.065 11.3101 79.99 10.6751L78.495 9.79007C78.225 9.63007 77.78 9.63007 77.505 9.79007L76.01 10.6751C74.94 11.3101 74.29 10.8351 74.57 9.62507L74.925 8.09007C74.99 7.80007 74.875 7.39507 74.665 7.18507L73.425 5.94507C72.695 5.21507 72.93 4.47507 73.95 4.30507L75.545 4.04007C75.81 3.99507 76.13 3.76007 76.25 3.51507L77.13 1.75507C77.61 0.800068 78.39 0.800068 78.865 1.75507Z" fill="#FBD71D"/>
</svg>
